# xmcd CD database file
#
# Track frame offsets:
#	150
#	13262
#	25612
#	37262
#	51075
#	62037
#	80400
#	96525
#	109425
#	122350
#	138712
#	153050
#	170300
#	188125
#	203375
#	217125
#	232875
#	245050
#	258375
#	275575
#
# Disc length: 3817 seconds
#
# Revision: 0
# Processed by: cddbd v1.4PL0 Copyright (c) Steve Scherf et al.
# Submitted via: CDex 1.50beta9
#
DISCID=1e0ee714
DTITLE=Django Reinhardt - On Vogue
DYEAR=1900
DGENRE=Jazz
TTITLE0=Sweet Sue,Just You
TTITLE1=I've Found A New Baby
TTITLE2=Crazy Rhythm
TTITLE3=I've Had My Moments
TTITLE4=Daphne
TTITLE5=Don't Be That Way
TTITLE6=Djangology
TTITLE7=Ride,Red,Ride(Improvisation on Tiger Rag)
TTITLE8=Clair De Lune
TTITLE9=Lentement Mademoiselle
TTITLE10=Lex Yeux Noirs
TTITLE11=Django's Dream
TTITLE12=Crepuscule
TTITLE13=Song D'automine
TTITLE14=Swing De Paris
TTITLE15=Blues En Mineur
TTITLE16=Place De Broukere
TTITLE17=Swing Guitars
TTITLE18=Nuages
TTITLE19=Minor Swing
EXTD=
EXTT0=
EXTT1=
EXTT2=
EXTT3=
EXTT4=
EXTT5=
EXTT6=
EXTT7=
EXTT8=
EXTT9=
EXTT10=
EXTT11=
EXTT12=
EXTT13=
EXTT14=
EXTT15=
EXTT16=
EXTT17=
EXTT18=
EXTT19=
PLAYORDER=
